<svg xmlns="http://www.w3.org/2000/svg" baseProfile="full" version="1.1" width="300px" height="300px" style="fill: none; width: 300px; height: 300px; stroke-width: 10;"><path d="" style="stroke-width: 10; stroke-linecap: round; stroke-linejoin: round; stroke: rgb(68, 68, 68); fill: none;"></path><path d="" style="stroke-width: 10; stroke-linecap: round; stroke-linejoin: round; stroke: rgb(119, 119, 119); fill: none;"></path><path d="M150,60 A-60,60 0 0,0 90,120 A0,0 0 0,0 90,120 A60,60 0 0,0 150,180 M150,120 A60,60 0 0,1 210,180 A0,0 0 0,1 210,180 A-60,60 0 0,1 150,240 M150,45 A-75,75 0 0,0 75,120 A0,0 0 0,0 75,120 A75,75 0 0,0 150,195 M150,105 A75,75 0 0,1 225,180 A0,0 0 0,1 225,180 A-75,75 0 0,1 150,255 M150,135 A45,45 0 0,1 195,180 A0,0 0 0,1 195,180 A-45,45 0 0,1 150,225 M150,165 A-45,-45 0 0,1 105,120 A0,0 0 0,1 105,120 A45,-45 0 0,1 150,75 M150,90 A-30,30 0 0,0 120,120 A0,0 0 0,0 120,120 A30,30 0 0,0 150,150 M150,150 A30,30 0 0,1 180,180 A0,0 0 0,1 180,180 A-30,30 0 0,1 150,210 M150,165 L150,165 L150,165 M150,165 A15,15 0 0,1 165,180 A0,0 0 0,1 165,180 A-15,15 0 0,1 150,195 M150,105 A-15,15 0 0,0 135,120 A0,0 0 0,0 135,120 A15,15 0 0,0 150,135 " style="stroke-width: 10; stroke-linecap: round; stroke-linejoin: round; stroke: rgb(255, 255, 255); fill: none;"></path></svg>